# xmcd CD database file
#
# Track frame offsets:
#	150
#	21225
#	41309
#	62955
#	84528
#	106071
#	124221
#	146725
#	167582
#	189969
#	208090
#	227216
#	247091
#
# Disc length: 3576 seconds
#
# Revision: 0
# Processed by: cddbd v1.5PL3 Copyright (c) Steve Scherf et al.
# Submitted via: CDex 1.50
#
DISCID=b40df60d
DTITLE=深田恭子 - moon
DYEAR=2000
DGENRE=Pop
TTITLE0=煌めきの瞬間 (Alternative Mix)
TTITLE1=あなたが知っている私が本当の私とは限らない (2000 Mix)
TTITLE2=午前４時の向こう側
TTITLE3=Into The Light
TTITLE4=桜の園
TTITLE5=prayer
TTITLE6=永遠の一瞬
TTITLE7=胸いっぱいの愛を
TTITLE8=イージーライダー
TTITLE9=黒い雨
TTITLE10=最後の果実
TTITLE11=煌めきの瞬間
TTITLE12=アトム・ハート・マザー
EXTD=YEAR: 2000
EXTT0=
EXTT1=
EXTT2=
EXTT3=
EXTT4=
EXTT5=
EXTT6=
EXTT7=
EXTT8=
EXTT9=
EXTT10=
EXTT11=
EXTT12=
PLAYORDER=
